<svg width="22" height="16" viewBox="0 0 22 16" fill="none" xmlns="http://www.w3.org/2000/svg">
<path d="M14 16.0001C11.7667 16.0001 9.875 15.2251 8.325 13.6751C6.775 12.1251 6 10.2334 6 8.00006C6 5.78339 6.775 3.89589 8.325 2.33756C9.875 0.779228 11.7667 6.10352e-05 14 6.10352e-05C16.2167 6.10352e-05 18.1042 0.779228 19.6625 2.33756C21.2208 3.89589 22 5.78339 22 8.00006C22 10.2334 21.2208 12.1251 19.6625 13.6751C18.1042 15.2251 16.2167 16.0001 14 16.0001ZM14 14.0001C15.6667 14.0001 17.0833 13.4167 18.25 12.2501C19.4167 11.0834 20 9.66673 20 8.00006C20 6.33339 19.4167 4.91673 18.25 3.75006C17.0833 2.58339 15.6667 2.00006 14 2.00006C12.3333 2.00006 10.9167 2.58339 9.75 3.75006C8.58333 4.91673 8 6.33339 8 8.00006C8 9.66673 8.58333 11.0834 9.75 12.2501C10.9167 13.4167 12.3333 14.0001 14 14.0001ZM15 7.60006V5.00006C15 4.71673 14.9042 4.47923 14.7125 4.28756C14.5208 4.09589 14.2833 4.00006 14 4.00006C13.7167 4.00006 13.4792 4.09589 13.2875 4.28756C13.0958 4.47923 13 4.71673 13 5.00006V8.02506C13 8.15839 13.0292 8.28756 13.0875 8.41256C13.1458 8.53756 13.2167 8.64173 13.3 8.72506L15.575 11.0001C15.775 11.2001 16.0125 11.3001 16.2875 11.3001C16.5625 11.3001 16.8 11.2001 17 11.0001C17.2 10.8001 17.3 10.5626 17.3 10.2876C17.3 10.0126 17.2 9.77506 17 9.57506L15 7.60006ZM2 5.00006C1.71667 5.00006 1.47917 4.90423 1.2875 4.71256C1.09583 4.52089 1 4.28339 1 4.00006C1 3.71673 1.09583 3.47923 1.2875 3.28756C1.47917 3.09589 1.71667 3.00006 2 3.00006H4C4.28333 3.00006 4.52083 3.09589 4.7125 3.28756C4.90417 3.47923 5 3.71673 5 4.00006C5 4.28339 4.90417 4.52089 4.7125 4.71256C4.52083 4.90423 4.28333 5.00006 4 5.00006H2ZM1 9.00006C0.716667 9.00006 0.479167 8.90423 0.2875 8.71256C0.0958333 8.5209 0 8.28339 0 8.00006C0 7.71673 0.0958333 7.47923 0.2875 7.28756C0.479167 7.09589 0.716667 7.00006 1 7.00006H4C4.28333 7.00006 4.52083 7.09589 4.7125 7.28756C4.90417 7.47923 5 7.71673 5 8.00006C5 8.28339 4.90417 8.5209 4.7125 8.71256C4.52083 8.90423 4.28333 9.00006 4 9.00006H1ZM2 13.0001C1.71667 13.0001 1.47917 12.9042 1.2875 12.7126C1.09583 12.5209 1 12.2834 1 12.0001C1 11.7167 1.09583 11.4792 1.2875 11.2876C1.47917 11.0959 1.71667 11.0001 2 11.0001H4C4.28333 11.0001 4.52083 11.0959 4.7125 11.2876C4.90417 11.4792 5 11.7167 5 12.0001C5 12.2834 4.90417 12.5209 4.7125 12.7126C4.52083 12.9042 4.28333 13.0001 4 13.0001H2Z" fill="#090F1F"/>
</svg>
